<svg xmlns="http://www.w3.org/2000/svg" width="144" height="40.76" viewBox="0 0 144 40.76">
  <g id="Grupo_327" data-name="Grupo 327" transform="translate(-136.148 -253.869)">
    <path id="Caminho_234" data-name="Caminho 234" d="M581.2,296.272a10.866,10.866,0,0,0-10.867-10.866h0a10.866,10.866,0,0,0-10.867,10.866h0a10.867,10.867,0,0,0,10.867,10.867h0a10.838,10.838,0,0,0,8.15-3.683v2.4a1.358,1.358,0,0,0,1.358,1.359h0a1.358,1.358,0,0,0,1.358-1.359v-9.523h0c0-.022,0-.043,0-.065Zm-10.867,8.15h0a8.15,8.15,0,0,1-8.15-8.15h0a8.15,8.15,0,0,1,8.15-8.15h0a8.15,8.15,0,0,1,8.15,8.15h0A8.15,8.15,0,0,1,570.333,304.422Z" transform="translate(-314.647 -23.441)" fill="#7a7a7a"/>
    <path id="Caminho_235" data-name="Caminho 235" d="M221.111,262.062h0a10.811,10.811,0,0,0-5.428,1.455v-6.9a2.717,2.717,0,0,0-2.717-2.717h0a2.717,2.717,0,0,0-2.717,2.717v16.106c0,.069-.005.137-.005.206h0A10.866,10.866,0,0,0,221.111,283.8h0a10.866,10.866,0,0,0,10.867-10.867h0A10.867,10.867,0,0,0,221.111,262.062Zm5.451,10.842a5.433,5.433,0,0,1-5.433,5.433h0A5.433,5.433,0,0,1,215.7,272.9h0a5.433,5.433,0,0,1,5.433-5.433h0a5.433,5.433,0,0,1,5.433,5.433Z" transform="translate(-55.075 -0.023)" fill="#e8335d"/>
    <g id="Grupo_327-2" data-name="Grupo 327" transform="translate(228.519 256.597)">
      <path id="Caminho_236" data-name="Caminho 236" d="M497.464,285.658a1.358,1.358,0,0,0-1.358,1.359v19.016a1.358,1.358,0,0,0,2.717,0V287.017A1.358,1.358,0,0,0,497.464,285.658Z" transform="translate(-496.071 -280.225)" fill="#7a7a7a"/>
      <circle id="Elipse_282" data-name="Elipse 282" cx="1.358" cy="1.358" r="1.358" transform="translate(0 0)" fill="#7a7a7a"/>
    </g>
    <g id="Grupo_328" data-name="Grupo 328" transform="translate(198.636 256.597)">
      <path id="Caminho_237" data-name="Caminho 237" d="M381.057,285.658a1.358,1.358,0,0,0-1.359,1.359v19.016a1.358,1.358,0,0,0,2.717,0V287.017A1.358,1.358,0,0,0,381.057,285.658Z" transform="translate(-379.664 -280.225)" fill="#7a7a7a"/>
      <circle id="Elipse_283" data-name="Elipse 283" cx="1.358" cy="1.358" r="1.358" transform="translate(0 0)" fill="#7a7a7a"/>
    </g>
    <path id="Caminho_238" data-name="Caminho 238" d="M422.462,296.272A10.866,10.866,0,0,0,411.6,285.406h0a10.866,10.866,0,0,0-10.867,10.866h0A10.867,10.867,0,0,0,411.6,307.139h0a10.837,10.837,0,0,0,8.15-3.683V307.2h0c0,.016,0,.032,0,.047v.021a8.15,8.15,0,0,1-8.15,8.14h0a8.194,8.194,0,0,1-8.067-7.04,1.358,1.358,0,1,0-2.687.4,10.869,10.869,0,0,0,10.755,9.3h0a10.864,10.864,0,0,0,10.861-10.635.552.552,0,0,0,.006-.058V296.3h0c0-.01,0-.019,0-.029ZM411.6,304.48h0a8.15,8.15,0,0,1-8.15-8.15h0a8.15,8.15,0,0,1,8.15-8.15h0a8.15,8.15,0,0,1,8.15,8.14v.021A8.15,8.15,0,0,1,411.6,304.48Z" transform="translate(-196.66 -23.441)" fill="#7a7a7a"/>
    <path id="Caminho_239" data-name="Caminho 239" d="M153.812,278.315h-6.82l6.826-5.143c0-.089-.007-.177-.007-.266,0-.057,0-.114,0-.17l0-.053V256.259a10.838,10.838,0,0,0-8.508-2.252h0a10.866,10.866,0,0,0-9.019,12.443h0a10.871,10.871,0,0,0,.5,1.955,2.7,2.7,0,0,0,4.247,1.19l.045-.036a2.734,2.734,0,0,0,.826-3.046,5.453,5.453,0,0,1-.238-.945h0a5.433,5.433,0,0,1,4.51-6.221h0a5.433,5.433,0,0,1,6.221,4.51h0a5.426,5.426,0,0,1-1.732,4.893c-.018.013-.037.024-.055.037l-13.383,10.084-.033.028c-.039.031-.076.062-.114.1s-.074.065-.109.1l-.056.057c-.048.05-.095.1-.139.153l-.008.01a2.716,2.716,0,0,0-.076,3.363h0a2.712,2.712,0,0,0,2.347,1.075h14.771a2.716,2.716,0,0,0,2.717-2.717h0A2.717,2.717,0,0,0,153.812,278.315Z" fill="#e8335d"/>
    <path id="Caminho_240" data-name="Caminho 240" d="M306.113,272.5V255.241a1.358,1.358,0,0,0-1.358-1.359h0a1.358,1.358,0,0,0-1.358,1.359V265.72a10.838,10.838,0,0,0-8.14-3.671h0a10.867,10.867,0,0,0-10.867,10.867h0a10.866,10.866,0,0,0,10.867,10.867h0a10.866,10.866,0,0,0,10.867-10.867h0C306.123,272.778,306.118,272.641,306.113,272.5Zm-2.724.387a8.15,8.15,0,0,1-8.15,8.15h0a8.15,8.15,0,0,1-8.15-8.15h0a8.15,8.15,0,0,1,8.15-8.15h0a8.15,8.15,0,0,1,8.15,8.15Z" transform="translate(-110.187 -0.01)" fill="#7a7a7a"/>
    <path id="Caminho_241" data-name="Caminho 241" d="M526.8,281.185a8.111,8.111,0,0,1-4.61-2.3h0a8.121,8.121,0,0,1-2.386-5.709v-8.284h4.066a1.358,1.358,0,1,0,0-2.717H519.8V255.4a1.358,1.358,0,0,0-2.717,0v17.886h0a10.827,10.827,0,0,0,3.178,7.516h0a10.816,10.816,0,0,0,6.163,3.076,1.358,1.358,0,1,0,.368-2.692Z" transform="translate(-283.145 -0.128)" fill="#7a7a7a"/>
    <path id="Caminho_242" data-name="Caminho 242" d="M664.369,281.185a8.11,8.11,0,0,1-4.61-2.3h0a8.122,8.122,0,0,1-2.386-5.709V255.4a1.358,1.358,0,0,0-2.717,0v17.886h0a10.827,10.827,0,0,0,3.178,7.516h0A10.815,10.815,0,0,0,664,283.877a1.359,1.359,0,1,0,.368-2.692Z" transform="translate(-385.402 -0.128)" fill="#7a7a7a"/>
  </g>
</svg>
