<svg id="_2bdigital" data-name="2bdigital" xmlns="http://www.w3.org/2000/svg" width="86.483" height="24.5" viewBox="0 0 86.483 24.5">
  <path id="l" d="M524.283,16.506a4.827,4.827,0,0,1-2.775-1.388h0a4.933,4.933,0,0,1-1.434-3.423V1.027a.817.817,0,1,0-1.634,0V11.773h0a6.542,6.542,0,0,0,1.912,4.517h0a6.531,6.531,0,0,0,3.7,1.85.825.825,0,0,0,.231-1.634Z" transform="translate(-438.51 -0.177)" fill="#999"/>
  <path id="a" d="M436.383,38.132a6.523,6.523,0,0,0-6.52-6.522h0a6.523,6.523,0,0,0-6.522,6.52v0a6.523,6.523,0,0,0,6.52,6.522h0a6.535,6.535,0,0,0,4.887-2.2V43.9a.823.823,0,0,0,.817.817h0a.823.823,0,0,0,.817-.817v-5.72h0Zm-6.521,4.887h0a4.889,4.889,0,0,1-4.887-4.887h0a4.889,4.889,0,0,1,4.887-4.887h0a4.889,4.889,0,0,1,4.887,4.887h0A4.889,4.889,0,0,1,429.862,43.019Z" transform="translate(-358.072 -26.736)" fill="#999"/>
  <path id="t" d="M386.683,16.422a4.827,4.827,0,0,1-2.775-1.388h0a4.934,4.934,0,0,1-1.434-3.423V6.632h2.436a.817.817,0,1,0,0-1.634h-2.436V.927a.817.817,0,1,0-1.634,0V11.673h0a6.542,6.542,0,0,0,1.912,4.517h0a6.53,6.53,0,0,0,3.7,1.85.812.812,0,0,0,.925-.8A.8.8,0,0,0,386.683,16.422Z" transform="translate(-322.125 -0.093)" fill="#999"/>
  <g id="i" transform="translate(55.478 1.636)">
    <path id="_Caminho_" data-name="&lt;Caminho&gt;" d="M360.757,31.81a.823.823,0,0,0-.817.817V44.051a.817.817,0,1,0,1.634,0V32.627a.812.812,0,0,0-.817-.817Z" transform="translate(-359.925 -28.541)" fill="#999"/>
    <ellipse id="_Caminho_2" data-name="&lt;Caminho&gt;" cx="0.817" cy="0.817" rx="0.817" ry="0.817" fill="#999"/>
  </g>
  <path id="g" d="M277.683,38.132a6.523,6.523,0,0,0-6.52-6.522h0a6.523,6.523,0,0,0-6.522,6.52v0a6.523,6.523,0,0,0,6.52,6.522h0a6.535,6.535,0,0,0,4.887-2.2V44.7h0v.046a4.889,4.889,0,0,1-4.887,4.887h0a4.914,4.914,0,0,1-4.841-4.224.811.811,0,1,0-1.6.247,6.529,6.529,0,0,0,6.46,5.581h0a6.526,6.526,0,0,0,6.521-6.383V38.178h0Zm-6.537,4.918h0a4.889,4.889,0,0,1-4.887-4.887h0a4.889,4.889,0,0,1,4.887-4.887h0a4.889,4.889,0,0,1,4.887,4.887v.015a4.866,4.866,0,0,1-4.887,4.872Z" transform="translate(-223.84 -26.736)" fill="#999"/>
  <g id="i-2" data-name="i" transform="translate(37.517 1.636)">
    <path id="_Caminho_3" data-name="&lt;Caminho&gt;" d="M244.357,31.81a.823.823,0,0,0-.817.817V44.051a.817.817,0,1,0,1.634,0V32.627a.812.812,0,0,0-.817-.817Z" transform="translate(-243.509 -28.541)" fill="#999"/>
    <ellipse id="_Caminho_4" data-name="&lt;Caminho&gt;" cx="0.817" cy="0.817" rx="0.817" ry="0.817" fill="#999"/>
  </g>
  <path id="d" d="M161.283,11.188V.827a.823.823,0,0,0-.817-.817h0a.823.823,0,0,0-.817.817v6.29a6.506,6.506,0,0,0-4.887-2.2h0a6.523,6.523,0,0,0-6.522,6.52v0a6.523,6.523,0,0,0,6.52,6.522h0a6.523,6.523,0,0,0,6.522-6.52v-.248Zm-1.634.247a4.889,4.889,0,0,1-4.887,4.887h0a4.889,4.889,0,0,1-4.887-4.887h0a4.889,4.889,0,0,1,4.887-4.887h0a4.869,4.869,0,0,1,4.887,4.887Z" transform="translate(-125.385 -0.008)" fill="#999"/>
  <path id="b" d="M80.662,4.9h0a6.459,6.459,0,0,0-3.254.879V1.636A1.636,1.636,0,0,0,75.774,0h0A1.636,1.636,0,0,0,74.14,1.634v9.79h0a6.523,6.523,0,0,0,6.52,6.522h0a6.523,6.523,0,0,0,6.522-6.52v0A6.534,6.534,0,0,0,80.662,4.9Zm3.268,6.522a3.27,3.27,0,0,1-3.268,3.268h0a3.27,3.27,0,0,1-3.268-3.268h0a3.27,3.27,0,0,1,3.268-3.268h0a3.27,3.27,0,0,1,3.268,3.268Z" transform="translate(-62.71 0)" fill="#999"/>
  <path id="_2" data-name="2" d="M10.6,14.677H6.5l4.1-3.083V1.434A6.545,6.545,0,0,0,5.495.077h0A6.525,6.525,0,0,0,.083,7.553h0A7.237,7.237,0,0,0,.376,8.725a1.616,1.616,0,0,0,2.544.709l.031-.015a1.653,1.653,0,0,0,.493-1.835,3.424,3.424,0,0,1-.139-.57h0A3.259,3.259,0,0,1,6.013,3.284h0A3.259,3.259,0,0,1,9.744,6h0A3.276,3.276,0,0,1,8.717,8.941c-.015.015-.015.015-.031.015L.653,15.017l-.015.015a.12.12,0,0,0-.062.062l-.062.062-.031.031a.409.409,0,0,0-.077.093h0A1.643,1.643,0,0,0,.361,17.3h0a1.613,1.613,0,0,0,1.4.648h8.865a1.636,1.636,0,0,0,1.634-1.634h0A1.682,1.682,0,0,0,10.6,14.677Z" transform="translate(0 0.002)" fill="#999"/>
</svg>
